<svg xmlns="http://www.w3.org/2000/svg" xmlns:xlink="http://www.w3.org/1999/xlink" width="40" zoomAndPan="magnify" viewBox="0 0 30 30.000001" height="40" preserveAspectRatio="xMidYMid meet" version="1.0"><defs><clipPath id="d85a231449"><path d="M 0.484375 0 L 29.515625 0 L 29.515625 29.03125 L 0.484375 29.03125 Z M 0.484375 0 " clip-rule="nonzero"/></clipPath></defs><g clip-path="url(#d85a231449)"><path fill="#ffffff" d="M 15 0 C 6.996094 0 0.484375 6.511719 0.484375 14.515625 C 0.484375 22.519531 6.996094 29.03125 15 29.03125 C 23.003906 29.03125 29.515625 22.519531 29.515625 14.515625 C 29.515625 6.511719 23.003906 0 15 0 Z M 15 2.417969 C 21.695312 2.417969 27.097656 7.820312 27.097656 14.515625 C 27.097656 20.597656 22.636719 25.597656 16.800781 26.464844 L 16.800781 18.042969 L 20.246094 18.042969 L 20.785156 14.542969 L 16.800781 14.542969 L 16.800781 12.632812 C 16.800781 11.179688 17.277344 9.890625 18.636719 9.890625 L 20.820312 9.890625 L 20.820312 6.835938 C 20.4375 6.785156 19.625 6.671875 18.089844 6.671875 C 14.886719 6.671875 13.011719 8.363281 13.011719 12.21875 L 13.011719 14.542969 L 9.71875 14.542969 L 9.71875 18.042969 L 13.011719 18.042969 L 13.011719 26.4375 C 7.269531 25.488281 2.902344 20.53125 2.902344 14.515625 C 2.902344 7.820312 8.304688 2.417969 15 2.417969 Z M 15 2.417969 " fill-opacity="1" fill-rule="nonzero"/></g></svg>