<svg xmlns="http://www.w3.org/2000/svg" xmlns:xlink="http://www.w3.org/1999/xlink" width="40" zoomAndPan="magnify" viewBox="0 0 30 30.000001" height="40" preserveAspectRatio="xMidYMid meet" version="1.0"><defs><clipPath id="83b8b9604d"><path d="M 0.484375 0 L 29.515625 0 L 29.515625 29.03125 L 0.484375 29.03125 Z M 0.484375 0 " clip-rule="nonzero"/></clipPath></defs><g clip-path="url(#83b8b9604d)"><path fill="#ffffff" d="M 14.992188 2.617188 C 18.867188 2.617188 19.324219 2.628906 20.859375 2.699219 C 22.269531 2.765625 23.039062 3 23.554688 3.203125 C 24.230469 3.464844 24.714844 3.78125 25.222656 4.289062 C 25.730469 4.800781 26.042969 5.28125 26.308594 5.957031 C 26.507812 6.464844 26.742188 7.234375 26.8125 8.65625 C 26.882812 10.1875 26.894531 10.644531 26.894531 14.519531 C 26.894531 18.394531 26.882812 18.851562 26.8125 20.382812 C 26.75 21.796875 26.511719 22.566406 26.308594 23.082031 C 26.050781 23.753906 25.730469 24.238281 25.222656 24.746094 C 24.714844 25.257812 24.230469 25.570312 23.554688 25.835938 C 23.046875 26.03125 22.277344 26.269531 20.859375 26.339844 C 19.324219 26.410156 18.867188 26.421875 14.992188 26.421875 C 11.121094 26.421875 10.660156 26.410156 9.128906 26.339844 C 7.714844 26.273438 6.945312 26.039062 6.429688 25.835938 C 5.757812 25.574219 5.273438 25.257812 4.765625 24.746094 C 4.257812 24.238281 3.945312 23.753906 3.675781 23.082031 C 3.480469 22.574219 3.246094 21.804688 3.175781 20.382812 C 3.105469 18.851562 3.09375 18.394531 3.09375 14.519531 C 3.09375 10.644531 3.105469 10.1875 3.175781 8.65625 C 3.238281 7.242188 3.472656 6.472656 3.675781 5.957031 C 3.9375 5.28125 4.257812 4.800781 4.765625 4.289062 C 5.273438 3.78125 5.757812 3.46875 6.429688 3.203125 C 6.941406 3.003906 7.710938 2.769531 9.128906 2.699219 C 10.660156 2.628906 11.121094 2.617188 14.992188 2.617188 M 14.992188 0.00390625 C 11.050781 0.00390625 10.558594 0.0234375 9.007812 0.09375 C 7.460938 0.164062 6.40625 0.410156 5.484375 0.765625 C 4.53125 1.136719 3.722656 1.632812 2.914062 2.441406 C 2.113281 3.246094 1.617188 4.054688 1.246094 5.007812 C 0.890625 5.933594 0.644531 6.988281 0.574219 8.535156 C 0.503906 10.078125 0.484375 10.574219 0.484375 14.511719 C 0.484375 18.457031 0.503906 18.945312 0.574219 20.5 C 0.644531 22.042969 0.890625 23.101562 1.246094 24.023438 C 1.617188 24.976562 2.113281 25.785156 2.921875 26.59375 C 3.726562 27.402344 4.535156 27.898438 5.488281 28.265625 C 6.414062 28.621094 7.46875 28.871094 9.015625 28.941406 C 10.558594 29.011719 11.054688 29.027344 15 29.027344 C 18.945312 29.027344 19.433594 29.011719 20.984375 28.941406 C 22.53125 28.871094 23.585938 28.621094 24.511719 28.265625 C 25.464844 27.898438 26.273438 27.402344 27.078125 26.59375 C 27.886719 25.785156 28.382812 24.976562 28.753906 24.023438 C 29.109375 23.101562 29.355469 22.042969 29.425781 20.5 C 29.496094 18.953125 29.515625 18.457031 29.515625 14.511719 C 29.515625 10.570312 29.496094 10.078125 29.425781 8.527344 C 29.355469 6.980469 29.109375 5.925781 28.753906 5.003906 C 28.382812 4.050781 27.886719 3.242188 27.078125 2.433594 C 26.273438 1.625 25.464844 1.128906 24.511719 0.761719 C 23.585938 0.402344 22.53125 0.15625 20.984375 0.0859375 C 19.433594 0.0234375 18.9375 0.00390625 14.992188 0.00390625 " fill-opacity="1" fill-rule="nonzero"/></g><path fill="#ffffff" d="M 14.992188 7.0625 C 10.878906 7.0625 7.542969 10.398438 7.542969 14.511719 C 7.542969 18.628906 10.882812 21.96875 15 21.96875 C 19.117188 21.96875 22.457031 18.636719 22.457031 14.511719 C 22.449219 10.398438 19.109375 7.0625 14.992188 7.0625 M 14.992188 19.355469 C 12.320312 19.355469 10.160156 17.191406 10.160156 14.519531 C 10.160156 11.847656 12.320312 9.683594 14.992188 9.683594 C 17.664062 9.683594 19.828125 11.847656 19.828125 14.519531 C 19.835938 17.183594 17.664062 19.355469 14.992188 19.355469 " fill-opacity="1" fill-rule="nonzero"/><path fill="#ffffff" d="M 24.484375 6.769531 C 24.484375 7.730469 23.703125 8.515625 22.742188 8.515625 C 21.78125 8.515625 21 7.730469 21 6.769531 C 21 5.8125 21.78125 5.027344 22.742188 5.027344 C 23.703125 5.027344 24.484375 5.804688 24.484375 6.769531 " fill-opacity="1" fill-rule="nonzero"/></svg>